<?xml version="1.0" standalone="no"?><!DOCTYPE svg PUBLIC "-//W3C//DTD SVG 1.1//EN" "http://www.w3.org/Graphics/SVG/1.1/DTD/svg11.dtd"><svg t="1575458134776" class="icon" viewBox="0 0 1024 1024" version="1.1" xmlns="http://www.w3.org/2000/svg" p-id="3433" data-spm-anchor-id="a313x.7781069.0.i2" width="32" height="32" xmlns:xlink="http://www.w3.org/1999/xlink"><defs><style type="text/css"></style></defs><path d="M867.947 869.455h-704.352c-55.302 0-100.046-44.745-100.046-100.046v-431.358c0-55.302 44.745-100.046 100.046-100.046h100.55v-41.226c0-24.132 19.607-44.24 44.24-44.24h414.768c24.132 0 44.24 19.607 44.24 44.24v41.226h100.55c55.302 0 100.046 44.745 100.046 100.046v431.358c0 54.799-44.745 100.046-100.046 100.046zM163.596 287.27c-27.651 0-50.275 22.624-50.275 50.275v431.358c0 27.651 22.624 50.275 50.275 50.275h704.352c27.651 0 50.275-22.624 50.275-50.275v-431.358c0-27.651-22.624-50.275-50.275-50.275h-150.322v-85.467h-403.708v85.467h-150.322z" p-id="3434" fill="#ffffff" data-spm-anchor-id="a313x.7781069.0.i3" class="selected"></path><path d="M508.982 771.922c-116.637 0-211.153-95.021-211.153-211.153s95.021-211.153 211.153-211.153c116.637 0 211.153 95.021 211.153 211.153s-94.516 211.153-211.153 211.153zM508.982 399.383c-88.987 0-161.383 72.396-161.383 161.383s72.396 161.383 161.383 161.383 161.383-72.396 161.383-161.383-72.396-161.383-161.383-161.383z" p-id="3435" fill="#ffffff"></path><path d="M811.135 423.013h-50.275c-19.607 0-35.696-16.090-35.696-35.696v-21.115c0-19.607 16.090-35.696 35.696-35.696h50.275c19.607 0 35.696 16.090 35.696 35.696v20.613c0 20.11-16.090 36.197-35.696 36.197z" p-id="3436" fill="#ffffff"></path></svg>